<svg width="60" height="28" viewBox="0 0 60 28" fill="none" xmlns="http://www.w3.org/2000/svg">
<path d="M39.7222 1.47406C39.9998 1.19643 39.9998 0.745762 39.7222 0.468129C39.4438 0.190311 38.9937 0.190311 38.7161 0.468129C38.4379 0.745762 38.4379 1.19643 38.7161 1.47406C38.9937 1.75188 39.4438 1.75188 39.7222 1.47406Z" fill="#E78617"/>
<path d="M41.3031 1.53844L38.5062 4.33536C38.2286 4.61299 38.2286 5.06366 38.5062 5.34129C38.7846 5.61911 39.2345 5.61911 39.5123 5.34129L42.3092 2.54437C42.587 2.26674 42.587 1.81663 42.3092 1.53844C42.0314 1.26062 41.5809 1.26062 41.3031 1.53844Z" fill="#E78617"/>
<path d="M37.2257 6.62152C37.5039 6.89934 37.954 6.89934 38.2318 6.62152C38.51 6.34389 38.51 5.89322 38.2318 5.61559C37.954 5.33777 37.5039 5.33777 37.2257 5.61559C36.9479 5.89322 36.9479 6.34389 37.2257 6.62152Z" fill="#E78617"/>
<path d="M43.6395 0.208364C43.3617 -0.0694546 42.9112 -0.0694546 42.6334 0.208364C42.3558 0.486182 42.3558 0.936663 42.6334 1.21448C42.9112 1.49211 43.3617 1.49211 43.6395 1.21448C43.9173 0.936663 43.9173 0.486182 43.6395 0.208364Z" fill="#E78617"/>
<path d="M41.0331 5.61936C40.7549 5.89755 40.7549 6.34766 41.0331 6.62548C41.3107 6.90366 41.7608 6.90366 42.039 6.62548C42.3169 6.34766 42.3169 5.89755 42.039 5.61936C41.7608 5.34172 41.3107 5.34172 41.0331 5.61936Z" fill="#E78617"/>
<path d="M39.5369 6.96276L39.1296 7.37021C38.4117 8.08794 37.2585 8.06754 36.5382 7.35204C36.5297 7.3435 36.5206 7.3346 36.5117 7.32551C35.7824 6.60667 35.753 5.44199 36.477 4.71795L38.367 2.82793C38.6396 2.55549 38.6799 2.10724 38.4221 1.82089C38.1472 1.51562 37.6762 1.50672 37.3895 1.79344L37.2874 1.896C35.4182 3.76469 32.8477 4.7033 30.206 4.62504C29.9512 4.61743 29.6936 4.61984 29.4342 4.63301C24.7864 4.87133 20.962 8.56754 20.5775 13.2057C20.5087 14.0341 20.549 14.8422 20.6844 15.6174C20.9657 17.2279 20.4605 18.875 19.3046 20.031C19.0555 20.2799 18.9911 20.6795 19.1938 20.9672C19.4563 21.3399 19.9748 21.3728 20.2821 21.0655L20.7181 20.6293C21.4221 19.9256 22.577 19.9223 23.2843 20.623L23.3359 20.6738C24.0664 21.3969 24.0694 22.5829 23.3427 23.3093L21.4804 25.1719C21.2079 25.444 21.1679 25.8921 21.4257 26.1784C21.7005 26.4837 22.1712 26.4931 22.4579 26.2064L22.6361 26.0278C24.457 24.2072 26.9614 23.2652 29.5343 23.3711C29.824 23.383 30.1172 23.3815 30.4134 23.3663C35.0612 23.1285 38.8856 19.4323 39.27 14.7942C39.3375 13.9794 39.3001 13.1847 39.1699 12.4218C38.8913 10.7853 39.3978 9.1139 40.5714 7.94031C40.8583 7.65359 40.8492 7.18252 40.5439 6.90767C40.2576 6.64989 39.8095 6.69032 39.5369 6.96276Z" fill="#E78617"/>
<path d="M20.1258 26.5266C19.848 26.8044 19.848 27.2551 20.1258 27.5327C20.4037 27.8105 20.8541 27.8105 21.1318 27.5327C21.4098 27.2551 21.4098 26.8044 21.1318 26.5266C20.8541 26.249 20.4037 26.249 20.1258 26.5266Z" fill="#E78617"/>
<path d="M21.3413 22.6584C21.0635 22.3808 20.613 22.3808 20.3352 22.6584L17.5384 25.4553C17.2606 25.7332 17.2606 26.1836 17.5384 26.4615C17.8163 26.7391 18.2667 26.7391 18.5444 26.4615L21.3413 23.6645C21.6191 23.3867 21.6191 22.9366 21.3413 22.6584Z" fill="#E78617"/>
<path d="M22.6217 22.3841C22.8995 22.1065 22.8995 21.6564 22.6217 21.3786C22.3439 21.1004 21.8934 21.1004 21.6156 21.3786C21.3378 21.6564 21.3378 22.1065 21.6156 22.3841C21.8934 22.6625 22.3439 22.6625 22.6217 22.3841Z" fill="#E78617"/>
<path d="M16.2084 26.7854C15.9305 27.0632 15.9305 27.5137 16.2084 27.7915C16.4862 28.0691 16.9365 28.0691 17.2143 27.7915C17.4921 27.5137 17.4921 27.0632 17.2143 26.7854C16.9365 26.5077 16.4862 26.5077 16.2084 26.7854Z" fill="#E78617"/>
<path d="M18.8148 22.3804C19.0926 22.1025 19.0926 21.6521 18.8148 21.3742C18.5371 21.0966 18.0866 21.0966 17.8088 21.3742C17.531 21.6521 17.531 22.1025 17.8088 22.3804C18.0866 22.6582 18.5371 22.6582 18.8148 22.3804Z" fill="#E78617"/>
<path d="M32.8364 16.4187C32.8364 17.0728 32.3042 17.6051 31.6495 17.6051H28.0723V15.0474H31.6495C32.3042 15.0474 32.8364 15.5797 32.8364 16.234V16.4187ZM28.0723 10.6155H31.3761C31.9624 10.6155 32.4408 11.0925 32.4408 11.6794V11.8545C32.4408 12.4413 31.9624 12.9191 31.3761 12.9191H28.0723V10.6155ZM34.5694 11.8545V11.6794C34.5694 9.98435 33.2394 8.59711 31.5692 8.49696V7.28906H29.4401V8.48695H28.5677V7.28906H26.4394V8.48695H24.8875V10.6155H25.9433V17.6051H24.8875V19.7334H26.4394V20.7121H28.5677V19.7334H29.4401V20.7121H31.5692V19.7334H31.6495C33.4783 19.7334 34.9657 18.2466 34.9657 16.4187V16.234C34.9657 15.2738 34.5536 14.4103 33.898 13.8044C34.3168 13.2646 34.5694 12.5891 34.5694 11.8545Z" fill="#F6F6F6"/>
</svg>
