<svg width="60" height="28" viewBox="0 0 60 28" fill="none" xmlns="http://www.w3.org/2000/svg">
<path d="M51.6803 0H8.31974C5.93401 0 4 1.97929 4 4.42087V23.5791C4 26.0207 5.93401 28 8.31974 28H51.6803C54.066 28 56 26.0207 56 23.5791V4.42087C56 1.97929 54.066 0 51.6803 0Z" fill="url(#paint0_linear_184_1460)"/>
<path d="M29.2528 4.1875H25.6821V24.4049H29.2528V4.1875Z" fill="white"/>
<path d="M35.8779 11.0137H32.3073V24.405H35.8779V11.0137Z" fill="white"/>
<path d="M51.8815 24.4049L46.516 17.3179L51.4512 11.0136H47.2353L42.503 17.1301V4.1875H38.9324V24.4049H42.503V17.5301L47.2353 24.4049H51.8815Z" fill="white"/>
<path d="M16.5826 10.8623C15.4227 10.8623 14.3317 11.1579 13.3784 11.6762V4.1875H9.80774V17.7092C9.80774 21.4918 12.8415 24.5579 16.5843 24.5579C20.327 24.5579 23.3608 21.4918 23.3608 17.7092C23.3608 13.9266 20.327 10.8605 16.5843 10.8605L16.5826 10.8623ZM16.5826 20.9492C14.8118 20.9492 13.3784 19.4988 13.3784 17.711C13.3784 15.9232 14.8136 14.4727 16.5826 14.4727C18.3516 14.4727 19.7867 15.9232 19.7867 17.711C19.7867 19.4988 18.3516 20.9492 16.5826 20.9492Z" fill="white"/>
<path d="M20.0689 9.62228C21.8271 9.62228 23.2524 8.18181 23.2524 6.40489C23.2524 4.62798 21.8271 3.1875 20.0689 3.1875C18.3107 3.1875 16.8854 4.62798 16.8854 6.40489C16.8854 8.18181 18.3107 9.62228 20.0689 9.62228Z" fill="url(#paint1_radial_184_1460)"/>
<defs>
<linearGradient id="paint0_linear_184_1460" x1="30" y1="28" x2="30" y2="0" gradientUnits="userSpaceOnUse">
<stop stop-color="#262626"/>
<stop offset="1"/>
</linearGradient>
<radialGradient id="paint1_radial_184_1460" cx="0" cy="0" r="1" gradientUnits="userSpaceOnUse" gradientTransform="translate(17.4791 3.01359) scale(10.4367 10.5478)">
<stop stop-color="#FF0000"/>
<stop offset="0.49" stop-color="#E83E49"/>
<stop offset="1" stop-color="#FF00FF"/>
</radialGradient>
</defs>
</svg>
