<svg width="60" height="28" viewBox="0 0 60 28" fill="none" xmlns="http://www.w3.org/2000/svg">
<path d="M22.9136 2.99219H36.391V25.0032H22.9136V2.99219Z" fill="#FF5F00"/>
<path d="M24.3025 14.0009C24.2993 9.70562 26.2702 5.64813 29.649 2.99705C23.5699 -1.78029 14.77 -0.724301 9.99265 5.35321C5.21531 11.4307 6.2713 20.2307 12.3488 25.008C17.4243 28.9973 24.5704 28.9973 29.6475 25.008C26.2686 22.3554 24.2961 18.2963 24.3009 14.0009H24.3025Z" fill="#EB001B"/>
<path d="M52.2974 14.0009C52.2974 21.7322 46.0296 27.9984 38.3 27.9984C35.1621 27.9984 32.1162 26.944 29.649 25.0048C35.7266 20.2275 36.7826 11.4276 32.0052 5.35004C31.3171 4.47321 30.5259 3.68201 29.649 2.99387C35.7266 -1.78347 44.5265 -0.730649 49.3039 5.34687C51.243 7.81402 52.2974 10.8599 52.2974 13.9978V14.0009Z" fill="#F79E1B"/>
</svg>
