<svg width="60" height="28" viewBox="0 0 60 28" fill="none" xmlns="http://www.w3.org/2000/svg">
<path fill-rule="evenodd" clip-rule="evenodd" d="M30.2401 19.7761C30.2484 19.4061 30.3869 19.109 30.6581 18.8861C30.9212 18.6599 31.2666 18.5435 31.6939 18.5371H32.5534V19.8614H32.0331C31.747 19.8678 31.6008 20.0029 31.5949 20.2633V20.5537H32.5534V21.9259H31.5949V25.972H30.2401V19.7761ZM6.09829 22.2536C6.09155 22.0411 5.9899 21.9313 5.79226 21.9242H4.73823C4.48838 21.9392 4.35991 22.0741 4.35353 22.3277V24.1972C4.35991 24.4592 4.5021 24.5927 4.77962 24.6003H5.74534C5.84591 24.6003 5.92939 24.5635 5.99591 24.4886C6.06532 24.4324 6.09829 24.36 6.09829 24.2704V22.2536ZM3 21.9881C3.00688 21.5205 3.11254 21.1651 3.31763 20.922C3.42486 20.8203 3.55947 20.735 3.72283 20.6646C3.89244 20.5896 4.05688 20.5534 4.21664 20.5534H6.1517C7.00531 20.5606 7.43921 21.0207 7.45304 21.935V24.7485C7.44655 25.0731 7.31783 25.3547 7.06822 25.5903C6.82174 25.8377 6.52678 25.9637 6.18357 25.9713H4.35353V27.9999H3V21.9881ZM9.89647 24.3289C9.89647 24.4071 9.9328 24.4691 10.0049 24.5154C10.0684 24.5713 10.1486 24.6003 10.2501 24.6003H11.2901C11.5254 24.6003 11.6471 24.5106 11.6539 24.3289V23.9462C11.6539 23.7373 11.5297 23.632 11.2801 23.632H10.2501C10.1149 23.632 10.0212 23.6541 9.96901 23.6961C9.92089 23.7455 9.89647 23.8433 9.89647 23.9884V24.3289ZM11.6539 22.2207C11.6607 22.0156 11.5398 21.9175 11.2897 21.9242H8.56312V20.5534H11.6332C12.5272 20.5676 12.9811 20.9938 12.9962 21.8343V24.7019C12.9888 25.0647 12.8762 25.3636 12.6576 25.6014C12.4288 25.8477 12.1342 25.9713 11.7731 25.9713H9.9174C9.01423 25.9637 8.55651 25.5575 8.54255 24.7495V23.643C8.54941 22.7986 8.98716 22.3696 9.85328 22.3548H11.6539V22.2207ZM17.0742 26.5161C16.9984 26.5842 16.906 26.6225 16.7986 26.6289H14.0963V27.9999H17.2563C17.6486 27.993 17.9561 27.8559 18.1815 27.5875C18.4029 27.3192 18.5181 26.9654 18.5254 26.5237V20.5534H17.1831V24.2613C17.1831 24.3499 17.1434 24.4253 17.0633 24.4886C16.9807 24.5635 16.882 24.6003 16.7684 24.6003H15.8129C15.5701 24.6003 15.4501 24.4557 15.4501 24.1661V20.5534H14.0963V24.6003C14.0963 24.8212 14.1276 25.005 14.1895 25.1492C14.2485 25.3071 14.3458 25.4583 14.4813 25.6026C14.6238 25.7389 14.766 25.8349 14.9083 25.8865C15.0432 25.9429 15.2238 25.9713 15.4501 25.9713H17.1831V26.297C17.1831 26.3796 17.1468 26.4526 17.0742 26.5161ZM19.5884 24.6003H22.0005C22.2214 24.5927 22.3359 24.5057 22.3428 24.3387V24.2154C22.3428 24.1799 22.3318 24.1403 22.3109 24.0976C22.2569 23.9942 22.1907 23.9427 22.112 23.9427H20.9162C20.5612 23.9359 20.2583 23.8153 20.0037 23.5826C19.7464 23.3679 19.6144 23.1035 19.6069 22.7933V21.771C19.621 20.9736 20.0604 20.5676 20.9261 20.5534H23.7237V21.9242H21.3537C21.0753 21.9242 20.9354 22.0083 20.9354 22.1758V22.3087C20.9354 22.4827 21.0786 22.5696 21.364 22.5696H22.556C22.874 22.577 23.1445 22.6968 23.3703 22.9305C23.5983 23.166 23.7165 23.4462 23.7237 23.7714V24.7715C23.7165 25.0523 23.5847 25.3327 23.331 25.6122C23.2073 25.7495 23.0809 25.844 22.9545 25.8973C22.8235 25.9464 22.6458 25.9713 22.4184 25.9713H19.5884V24.6003ZM26.15 24.5154C26.0767 24.4691 26.0404 24.4071 26.0404 24.3289V23.9884C26.0404 23.8433 26.0656 23.7455 26.1138 23.6961C26.1656 23.6541 26.2588 23.632 26.3939 23.632H27.4245C27.6735 23.632 27.7991 23.7373 27.7991 23.9462V24.3289C27.7921 24.5106 27.6709 24.6003 27.4356 24.6003H26.3939C26.2937 24.6003 26.213 24.5713 26.15 24.5154ZM27.4338 21.9242C27.684 21.9175 27.805 22.0156 27.7991 22.2207V22.3548H25.9978C25.1306 22.3696 24.6934 22.7986 24.6874 23.643V24.7495C24.7001 25.5575 25.1585 25.9637 26.0609 25.9713H27.9177C28.2794 25.9713 28.5744 25.8477 28.8016 25.6014C29.019 25.3636 29.1324 25.0647 29.1397 24.7019V21.8343C29.1256 20.9938 28.6717 20.5676 27.7783 20.5534H24.7079V21.9242H27.4338ZM36.4036 22.163V22.195L34.7059 22.8253V22.2748C34.7059 22.1723 34.7537 22.0891 34.8474 22.0258C34.9228 21.9574 35.0203 21.9242 35.1413 21.9242H36.0834C36.1759 21.9242 36.2532 21.9449 36.3162 21.9881C36.3747 22.0328 36.4036 22.0925 36.4036 22.163ZM34.7276 24.218V24.1327L37.7814 22.9492V21.8653C37.7678 21.0045 37.3406 20.5676 36.4976 20.5534H34.6727C33.8095 20.5676 33.3702 20.9896 33.355 21.8187L33.3666 24.5624C33.3666 24.8244 33.3942 25.0348 33.4501 25.1931C33.5011 25.3452 33.6025 25.4929 33.7513 25.6382C33.8785 25.7578 34.0245 25.8441 34.1867 25.8966C34.3355 25.9464 34.5455 25.9713 34.8153 25.9713H37.7722V24.6003H34.9914C34.9151 24.6003 34.8579 24.5592 34.8153 24.4782C34.7565 24.4151 34.7276 24.3279 34.7276 24.218ZM40.6469 25.9713C40.4418 25.9713 40.2548 25.9529 40.0851 25.9188C39.9072 25.8902 39.7299 25.8088 39.5487 25.6718C39.3629 25.5122 39.2347 25.3335 39.1642 25.1358C39.0898 24.9416 39.0537 24.7217 39.0537 24.474V21.9156C39.0463 21.7071 39.0675 21.5238 39.1169 21.3651C39.1626 21.2063 39.2581 21.0513 39.4026 20.8992C39.5674 20.7396 39.7354 20.6335 39.9132 20.5814C40.0838 20.5392 40.2763 20.518 40.4921 20.518H42.5666V20.8385H40.5401C40.1823 20.8385 39.9011 20.911 39.6954 21.056C39.4849 21.2145 39.3779 21.4872 39.3779 21.8717V24.4318C39.3779 24.6119 39.4056 24.7869 39.4613 24.956C39.5181 25.1223 39.6125 25.268 39.7487 25.3952C39.8959 25.5057 40.043 25.5746 40.1862 25.6026C40.3357 25.6351 40.4956 25.6504 40.6656 25.6504H42.5994V25.9713H40.6469ZM45.1829 22.6522H47.903V24.5754C47.903 25.2855 47.556 25.6433 46.8674 25.6504H45.2193C44.9349 25.6504 44.6747 25.5555 44.4397 25.3636C44.3048 25.2582 44.2194 25.1358 44.1853 24.9987C44.1507 24.8683 44.134 24.7236 44.134 24.5653V23.7488C44.134 23.4105 44.228 23.1439 44.4182 22.95C44.6022 22.7589 44.8569 22.6596 45.1829 22.6522ZM48.1833 25.0414C48.2102 24.8825 48.2261 24.7015 48.2261 24.4957V22.0376C48.2314 21.6245 48.1096 21.2582 47.8598 20.9404C47.7771 20.8317 47.6881 20.7488 47.5931 20.6921C47.5029 20.6325 47.4053 20.5914 47.2978 20.5705C47.0895 20.5357 46.8591 20.518 46.6044 20.518H43.8179V20.8385H46.757C46.9446 20.8385 47.1128 20.8581 47.2626 20.8964C47.4109 20.9469 47.5413 21.0438 47.6516 21.1894C47.8255 21.4134 47.9127 21.674 47.9127 21.971V22.3322H45.2185C44.292 22.3539 43.8216 22.8302 43.808 23.761V24.5855C43.808 25.0195 43.9446 25.3578 44.214 25.6014C44.4779 25.8477 44.8187 25.9713 45.2387 25.9713H46.8563C47.2762 25.9789 47.6287 25.8349 47.9127 25.5397C48.0493 25.3813 48.1394 25.2145 48.1833 25.0414ZM51.268 20.8385C50.5134 20.8525 50.1417 21.2582 50.1559 22.0568V25.9713H49.8317V22.0581C49.8166 21.0308 50.3125 20.518 51.3201 20.518H51.6802V20.8385H51.268ZM54.1833 20.8403H56.7472V24.4337C56.7383 24.8757 56.6036 25.186 56.3389 25.3658C56.0758 25.5575 55.7332 25.6524 55.3147 25.6524H54.1939C54.0099 25.6524 53.8434 25.6329 53.6937 25.5938C53.5432 25.5584 53.4096 25.5057 53.2876 25.4354C53.0404 25.2837 52.9184 25.0014 52.9184 24.5865V22.0906C52.9108 21.8968 52.9321 21.7308 52.9795 21.5924C53.0156 21.4551 53.1006 21.3178 53.2358 21.1794C53.377 21.0273 53.5277 20.934 53.6839 20.8992C53.8331 20.8606 53.9987 20.8403 54.1833 20.8403ZM55.4073 25.9736C56.4877 25.995 57.0422 25.4887 57.0711 24.4557V18.7512H56.7472V20.5196H54.2031C53.1437 20.5116 52.6077 21.0332 52.5936 22.0823V24.4115C52.5859 24.6299 52.6077 24.8301 52.6573 25.0097C52.6942 25.19 52.7862 25.3658 52.9294 25.5397C53.1197 25.7331 53.3176 25.8574 53.5241 25.91C53.7245 25.9518 53.9516 25.9736 54.2055 25.9736H55.4073Z" fill="#008ACA"/>
<path fill-rule="evenodd" clip-rule="evenodd" d="M26.3613 4.56104C26.1724 4.60051 25.9833 4.66295 25.7943 4.74315C25.4965 4.8672 25.2436 5.02863 25.0221 5.20823C25.0141 4.97141 25.0186 4.74544 25.034 4.52825C25.1457 2.01258 27.2942 0 29.9336 0C32.4969 0 34.5993 1.89312 34.823 4.30542C34.8605 4.58317 34.8732 4.87868 34.8591 5.18526C34.5105 4.872 34.063 4.66107 33.5218 4.56271C33.1748 2.96634 31.7041 1.76698 29.941 1.76698C28.1788 1.76698 26.7088 2.96488 26.3613 4.56104ZM26.0464 5.29406C26.3484 5.16396 26.6415 5.1011 26.9248 5.1011H32.806C34.3248 5.11363 35.0978 5.91222 35.1221 7.4994V12.1076C35.0978 13.6923 34.3248 14.4938 32.806 14.5068H26.9248C26.6415 14.5068 26.3484 14.4429 26.0464 14.3151C25.7554 14.1918 25.516 14.0442 25.325 13.8646C24.9597 13.4446 24.773 12.8285 24.7601 12.0147V7.59191C24.773 6.77995 24.9597 6.16283 25.325 5.74077C25.516 5.5643 25.7554 5.41644 26.0464 5.29406Z" fill="#E2001A"/>
</svg>
