<svg width="60" height="28" viewBox="0 0 60 28" fill="none" xmlns="http://www.w3.org/2000/svg">
<path fill-rule="evenodd" clip-rule="evenodd" d="M17.1541 22.8862L22.462 5.3825H27.199L21.8897 22.8862H17.1526H17.1541ZM15.036 5.38678L10.7757 12.807C9.691 14.7509 9.0573 15.7315 8.75187 16.9603H8.68765C8.76329 15.4032 8.54635 13.4921 8.52494 12.4117L8.05395 5.38678H0.081353L0 5.85777C2.0481 5.85777 3.26268 6.88682 3.59809 8.99201L5.15236 22.8862H10.0592L19.9814 5.38678H15.0375H15.036ZM51.8704 22.8862L51.7391 20.283L45.8246 20.2787L44.6143 22.8862H39.4719L48.7961 5.41676H55.1074L56.6859 22.8862H51.8675H51.8704ZM51.3266 12.5615C51.2738 11.2685 51.2296 9.51152 51.3181 8.44965H51.2481C50.9598 9.31885 49.7224 11.9279 49.1772 13.2109L47.4145 17.0474H51.5678L51.3266 12.5615ZM32.1701 23.3844C28.8261 23.3844 26.6067 22.3239 25.0225 21.3776L27.279 17.9323C28.7019 18.7273 29.818 19.6464 32.3871 19.6464C33.2134 19.6464 34.0098 19.4323 34.4609 18.6488C35.1202 17.5098 34.3096 16.8975 32.4584 15.8499L31.545 15.2562C28.8018 13.3822 27.6158 11.6024 28.9074 8.4939C29.7338 6.50574 31.9132 5 35.5085 5C37.9876 5 40.3126 6.07186 41.667 7.11946L39.0737 10.1623C37.7521 9.09334 36.656 8.55242 35.4028 8.55242C34.4038 8.55242 33.6445 8.93777 33.3819 9.45729C32.888 10.435 33.5417 11.1015 34.9832 11.9964L36.0694 12.6871C39.3991 14.7881 40.1927 16.9903 39.3577 19.0484C37.9219 22.5922 35.1117 23.3844 32.1716 23.3844H32.1701ZM57.9833 8.09141H57.6707V6.19318H58.3901C58.8482 6.19318 59.0823 6.35303 59.0823 6.73839C59.0823 7.08235 58.871 7.22365 58.587 7.25648L59.118 8.09141H58.7654L58.2745 7.28074H57.9819V8.09141H57.9833ZM58.3315 7.01384C58.5656 7.01384 58.7711 6.99101 58.7711 6.71555C58.7711 6.48576 58.5471 6.45865 58.3587 6.45865H57.9819V7.01384H58.3301H58.3315ZM58.323 8.82502C57.3382 8.82502 56.6374 8.08713 56.6374 7.1109C56.6374 6.079 57.4167 5.39677 58.323 5.39677C59.2293 5.39677 60 6.079 60 7.1109C60 8.1428 59.2207 8.82502 58.323 8.82502ZM58.323 5.69507C57.5808 5.69507 57.0028 6.27738 57.0028 7.1109C57.0028 7.89017 57.5066 8.52672 58.323 8.52672C59.0566 8.52672 59.6346 7.95012 59.6346 7.1109C59.6346 6.27168 59.0566 5.69507 58.323 5.69507Z" fill="#1D5B99"/>
</svg>
